<?xml version="1.0" encoding="UTF-8" standalone="no"?>
<!-- Created with Inkscape (http://www.inkscape.org/) -->

<svg
   xmlns:dc="http://purl.org/dc/elements/1.1/"
   xmlns:cc="http://creativecommons.org/ns#"
   xmlns:rdf="http://www.w3.org/1999/02/22-rdf-syntax-ns#"
   xmlns:svg="http://www.w3.org/2000/svg"
   xmlns="http://www.w3.org/2000/svg"
   xmlns:sodipodi="http://sodipodi.sourceforge.net/DTD/sodipodi-0.dtd"
   xmlns:inkscape="http://www.inkscape.org/namespaces/inkscape"
   width="300mm"
   height="350mm"
   viewBox="0 0 300 350"
   version="1.1"
   id="svg8"
   inkscape:version="0.92.2 (5c3e80d, 2017-08-06)"
   sodipodi:docname="11.svg">
  <defs
     id="defs2" />
  <sodipodi:namedview
     id="base"
     pagecolor="#ffffff"
     bordercolor="#666666"
     borderopacity="1.0"
     inkscape:pageopacity="0.0"
     inkscape:pageshadow="2"
     inkscape:zoom="0.49497475"
     inkscape:cx="791.21288"
     inkscape:cy="514.16316"
     inkscape:document-units="mm"
     inkscape:current-layer="text825"
     showgrid="false"
     fit-margin-top="0"
     fit-margin-left="0"
     fit-margin-right="0"
     fit-margin-bottom="0"
     inkscape:window-width="1920"
     inkscape:window-height="1057"
     inkscape:window-x="-8"
     inkscape:window-y="-8"
     inkscape:window-maximized="1" />
  <metadata
     id="metadata5">
    <rdf:RDF>
      <cc:Work
         rdf:about="">
        <dc:format>image/svg+xml</dc:format>
        <dc:type
           rdf:resource="http://purl.org/dc/dcmitype/StillImage" />
        <dc:title></dc:title>
      </cc:Work>
    </rdf:RDF>
  </metadata>
  <g
     inkscape:label="Layer 1"
     inkscape:groupmode="layer"
     id="layer1"
     transform="translate(0,53)">
    <rect
       style="opacity:1;fill:#00783a;fill-opacity:1;fill-rule:nonzero;stroke:none;stroke-width:0.17551038;stroke-linecap:butt;stroke-linejoin:miter;stroke-miterlimit:4;stroke-dasharray:none;stroke-opacity:1;paint-order:stroke fill markers"
       id="rect815"
       width="300"
       height="350"
       x="0"
       y="-53" />
    <rect
       y="-53"
       x="0"
       height="350"
       width="300"
       id="rect817"
       style="opacity:1;fill:#ffffff;fill-opacity:1;fill-rule:nonzero;stroke:none;stroke-width:0.17551038;stroke-linecap:butt;stroke-linejoin:miter;stroke-miterlimit:4;stroke-dasharray:none;stroke-opacity:1;paint-order:stroke fill markers"
       rx="50"
       ry="50" />
    <rect
       y="-38"
       x="15"
       height="320"
       width="270"
       id="rect819"
       style="opacity:1;fill:#00783a;fill-opacity:1;fill-rule:nonzero;stroke:none;stroke-width:0.15920804;stroke-linecap:butt;stroke-linejoin:miter;stroke-miterlimit:4;stroke-dasharray:none;stroke-opacity:1;paint-order:stroke fill markers"
       rx="35"
       ry="35" />
    <g
       aria-label="3"
       transform="matrix(1.0070015,0,0,0.99304717,-8.867162,-43.786752)"
       style="font-style:normal;font-variant:normal;font-weight:bold;font-stretch:normal;font-size:194.82286072px;line-height:0;font-family:'DIN 1451 Mittelschrift';-inkscape-font-specification:'DIN 1451 Mittelschrift Bold';letter-spacing:0px;word-spacing:0px;fill:#ffffff;fill-opacity:1;stroke:none;stroke-width:1.01470232"
       id="text823">
      <path
         d="M 148.82051,103.11639 V 85.612774 h 6.84924 q 9.89334,0 15.60105,-5.51744 5.80283,-5.61258 5.80283,-14.17413 0,-8.46642 -5.99309,-14.26925 -5.99309,-5.80283 -14.26925,-5.80283 -6.27847,0 -11.89104,4.18565 -5.61258,4.18565 -7.22976,12.55694 h -19.88182 q 1.14154,-14.64977 12.27155,-25.58953 11.13002,-11.03488 25.97004,-11.03488 18.55003,0 29.68004,12.27155 11.22515,12.17643 11.22515,27.30184 0,7.99078 -3.13924,15.60105 -3.13923,7.51514 -11.70078,13.03258 8.75181,5.61258 12.55694,13.793606 3.80513,8.18104 3.80513,16.55234 0,19.40618 -12.17642,30.91671 -12.17643,11.51053 -29.8703,11.51053 -14.079,0 -25.39927,-9.03719 -11.22515,-9.13232 -13.98387,-26.54081 h 19.88182 q 2.75873,7.13462 7.42002,11.51053 4.66129,4.28077 13.22284,4.28077 8.27616,0 14.64976,-5.80283 6.3736,-5.89795 6.3736,-16.17182 0,-10.36899 -6.3736,-16.17181 -6.27847,-5.89796 -15.03028,-5.89796 z"
         style="font-style:normal;font-variant:normal;font-weight:bold;font-stretch:normal;font-family:'DIN 1451 Mittelschrift';-inkscape-font-specification:'DIN 1451 Mittelschrift Bold';fill:#ffffff;fill-opacity:1;stroke:none;stroke-width:1.01470232"
         id="path825"
         inkscape:connector-curvature="0" />
    </g>
    <g
       aria-label="PHASE"
       style="font-style:normal;font-variant:normal;font-weight:bold;font-stretch:normal;font-size:67.71389771px;line-height:0;font-family:'DIN 1451 Mittelschrift';-inkscape-font-specification:'DIN 1451 Mittelschrift Bold';letter-spacing:0px;word-spacing:0px;fill:#ffffff;fill-opacity:1;stroke:none;stroke-width:0.35267654"
       id="text830"
       transform="translate(-1.2021484e-5,4.559807)" />
    <g
       aria-label="FASES"
       style="font-style:normal;font-variant:normal;font-weight:bold;font-stretch:normal;font-size:67.71389771px;line-height:0;font-family:'DIN 1451 Mittelschrift';-inkscape-font-specification:'DIN 1451 Mittelschrift Bold';letter-spacing:0px;word-spacing:0px;fill:#ffffff;fill-opacity:1;stroke:none;stroke-width:0.35267654"
       id="text825"
       transform="translate(-0.730222)">
      <path
         d="m 77.730222,191.60324 v -48.17341 h 30.815108 v 6.91026 H 85.037242 v 14.1842 h 20.036428 v 6.5135 H 85.037242 v 20.56545 z"
         style="font-style:normal;font-variant:normal;font-weight:bold;font-stretch:normal;font-family:'DIN 1451 Mittelschrift';-inkscape-font-specification:'DIN 1451 Mittelschrift Bold';fill:#ffffff;fill-opacity:1;stroke:none;stroke-width:0.35267654"
         id="path839"
         inkscape:connector-curvature="0" />
      <path
         d="m 107.71522,191.57018 17.58974,-48.20648 h 6.01754 l 17.58975,48.20648 h -7.67072 l -3.7031,-10.87787 h -18.28408 l -3.83536,10.87787 z m 13.68825,-17.32524 h 13.95277 q -1.52092,-4.46356 -2.41363,-6.97638 -0.85965,-2.54589 -1.52092,-4.49663 -0.6282,-1.95074 -1.28947,-3.96761 -0.66127,-2.01687 -1.75236,-5.45547 -1.15722,3.57085 -1.85156,5.71998 -0.69433,2.11606 -1.3556,4.09986 -0.6282,1.98381 -1.48785,4.4305 -0.82659,2.44669 -2.28138,6.64575 z"
         style="font-style:normal;font-variant:normal;font-weight:bold;font-stretch:normal;font-family:'DIN 1451 Mittelschrift';-inkscape-font-specification:'DIN 1451 Mittelschrift Bold';fill:#ffffff;fill-opacity:1;stroke:none;stroke-width:0.35267654"
         id="path841"
         inkscape:connector-curvature="0" />
      <path
         d="m 153.71522,185.38731 4.82726,-5.48852 q 2.7112,2.18218 6.24899,3.50472 3.53778,1.32254 7.4062,1.32254 4.46357,0 7.00945,-1.85156 2.54588,-1.85155 2.54588,-4.86032 0,-5.68691 -6.28204,-6.51349 -1.65318,-0.19839 -3.07491,-0.39677 -1.42172,-0.19838 -3.30634,-0.46288 -6.24899,-0.85965 -9.52227,-4.56276 -3.27328,-3.73616 -3.27328,-8.99325 0,-6.14979 4.09987,-10.1174 4.13293,-3.96761 11.60526,-3.96761 4.46357,0 8.39811,1.42172 3.93455,1.42173 7.24089,3.60392 l -4.0668,6.01754 q -2.64507,-1.65318 -5.68691,-2.67814 -3.04183,-1.02496 -6.21592,-1.02496 -3.37247,0 -5.71997,1.71929 -2.34751,1.7193 -2.34751,5.1579 0,2.04993 1.58705,3.83535 1.58704,1.78543 5.25708,2.34751 0.95884,0.16531 2.31444,0.36369 1.3556,0.16532 3.10797,0.3637 6.74493,0.82659 9.95208,4.89339 3.24022,4.0668 3.24022,8.99325 0,6.64575 -4.59582,10.31579 Q 179.86839,192 172.13155,192 q -10.87787,0 -18.41633,-6.61269 z"
         style="font-style:normal;font-variant:normal;font-weight:bold;font-stretch:normal;font-family:'DIN 1451 Mittelschrift';-inkscape-font-specification:'DIN 1451 Mittelschrift Bold';fill:#ffffff;fill-opacity:1;stroke:none;stroke-width:0.35267654"
         id="path843"
         inkscape:connector-curvature="0" />
      <path
         d="m 198.71522,191.60324 v -48.17341 h 30.81512 v 6.91026 h -23.5081 v 13.72131 h 20.03644 v 6.5135 h -20.03644 v 14.15115 h 23.5081 v 6.87719 z"
         style="font-style:normal;font-variant:normal;font-weight:bold;font-stretch:normal;font-family:'DIN 1451 Mittelschrift';-inkscape-font-specification:'DIN 1451 Mittelschrift Bold';fill:#ffffff;fill-opacity:1;stroke:none;stroke-width:0.35267654"
         id="path845"
         inkscape:connector-curvature="0" />
      <g
         aria-label="PHASE"
         style="font-style:normal;font-variant:normal;font-weight:bold;font-stretch:normal;font-size:67.71389771px;line-height:0;font-family:'DIN 1451 Mittelschrift';-inkscape-font-specification:'DIN 1451 Mittelschrift Bold';letter-spacing:0px;word-spacing:0px;fill:#00ffff;fill-opacity:1;stroke:none;stroke-width:0.35267654"
         id="text830-1"
         transform="translate(14.299116,115.03017)">
        <path
           d="m 40.738126,105.30991 v 15.53981 h 10.8448 q 4.0668,0 6.05061,-2.4467 2.01687,-2.44669 2.01687,-5.32321 0,-4.36437 -3.14103,-6.4143 -2.01687,-1.3556 -5.19096,-1.3556 z m -7.30702,41.26316 V 98.39965 h 17.49055 q 2.81039,0 5.38934,0.59514 2.61201,0.59514 5.4224,2.77733 2.18219,1.68624 3.70311,4.66194 1.52092,2.94265 1.52092,6.84413 0,5.1579 -3.86843,9.81984 -3.83535,4.66194 -11.24156,4.66194 h -11.10931 v 18.8131 z"
           style="font-style:normal;font-variant:normal;font-weight:bold;font-stretch:normal;font-family:'DIN 1451 Mittelschrift';-inkscape-font-specification:'DIN 1451 Mittelschrift Bold';fill:#ffffff;fill-opacity:1;stroke:none;stroke-width:0.35267654"
           id="path832"
           inkscape:connector-curvature="0" />
        <path
           d="M 101.84879,146.57307 V 125.54472 H 82.738126 v 21.02835 h -7.30702 V 98.39965 h 7.30702 v 20.63158 H 101.84879 V 98.39965 h 7.30702 v 48.17342 z"
           style="font-style:normal;font-variant:normal;font-weight:bold;font-stretch:normal;font-family:'DIN 1451 Mittelschrift';-inkscape-font-specification:'DIN 1451 Mittelschrift Bold';fill:#ffffff;fill-opacity:1;stroke:none;stroke-width:0.35267654"
           id="path834"
           inkscape:connector-curvature="0" />
        <path
           d="m 117.43111,146.54001 17.58974,-48.20649 h 6.01754 l 17.58974,48.20649 h -7.67071 l -3.70311,-10.87788 h -18.28406 l -3.83536,10.87788 z m 13.68826,-17.32525 h 13.95276 q -1.52092,-4.46356 -2.41363,-6.97638 -0.85965,-2.54588 -1.52092,-4.49662 -0.62821,-1.95075 -1.28947,-3.96762 -0.66127,-2.01686 -1.75236,-5.45546 -1.15722,3.57085 -1.85155,5.71997 -0.69433,2.11606 -1.3556,4.09987 -0.62821,1.9838 -1.48785,4.4305 -0.82659,2.44669 -2.28138,6.64574 z"
           style="font-style:normal;font-variant:normal;font-weight:bold;font-stretch:normal;font-family:'DIN 1451 Mittelschrift';-inkscape-font-specification:'DIN 1451 Mittelschrift Bold';fill:#ffffff;fill-opacity:1;stroke:none;stroke-width:0.35267654"
           id="path836"
           inkscape:connector-curvature="0" />
        <path
           d="m 163.43111,140.35715 4.82726,-5.48854 q 2.7112,2.1822 6.24898,3.50473 3.53779,1.32254 7.40621,1.32254 4.46356,0 7.00945,-1.85155 2.54588,-1.85156 2.54588,-4.86033 0,-5.68691 -6.28205,-6.5135 -1.65317,-0.19838 -3.0749,-0.39676 -1.42172,-0.19838 -3.30634,-0.46289 -6.24899,-0.85965 -9.52227,-4.56275 -3.27328,-3.73617 -3.27328,-8.99325 0,-6.1498 4.09987,-10.11741 4.13293,-3.96761 11.60526,-3.96761 4.46356,0 8.39811,1.42172 3.93455,1.42173 7.24089,3.60392 l -4.0668,6.01754 q -2.64507,-1.65317 -5.68691,-2.67814 -3.04183,-1.02496 -6.21592,-1.02496 -3.37247,0 -5.71998,1.7193 -2.3475,1.71929 -2.3475,5.15789 0,2.04993 1.58705,3.83536 1.58704,1.78542 5.25708,2.3475 0.95884,0.16532 2.31444,0.3637 1.3556,0.16532 3.10796,0.3637 6.74494,0.82658 9.95209,4.89338 3.24022,4.0668 3.24022,8.99326 0,6.64575 -4.59582,10.31579 -4.59581,3.67004 -12.33265,3.67004 -10.87787,0 -18.41633,-6.61268 z"
           style="font-style:normal;font-variant:normal;font-weight:bold;font-stretch:normal;font-family:'DIN 1451 Mittelschrift';-inkscape-font-specification:'DIN 1451 Mittelschrift Bold';fill:#ffffff;fill-opacity:1;stroke:none;stroke-width:0.35267654"
           id="path838"
           inkscape:connector-curvature="0" />
        <path
           d="M 208.61611,146.57307 V 98.39965 h 30.81511 v 6.91026 h -23.5081 v 13.72132 h 20.03644 v 6.51349 h -20.03644 v 14.15116 h 23.5081 v 6.87719 z"
           style="font-style:normal;font-variant:normal;font-weight:bold;font-stretch:normal;font-family:'DIN 1451 Mittelschrift';-inkscape-font-specification:'DIN 1451 Mittelschrift Bold';fill:#ffffff;fill-opacity:1;stroke:none;stroke-width:0.35267654"
           id="path840"
           inkscape:connector-curvature="0" />
      </g>
    </g>
  </g>
</svg>
